<?xml version="1.0" encoding="utf-8"?>
<!-- Generator: Adobe Illustrator 27.0.0, SVG Export Plug-In . SVG Version: 6.00 Build 0)  -->
<svg version="1.1" id="Layer_1" xmlns="http://www.w3.org/2000/svg" xmlns:xlink="http://www.w3.org/1999/xlink" x="0px" y="0px"
	 viewBox="0 0 114.1 90.8" style="enable-background:new 0 0 114.1 90.8;" xml:space="preserve">
<style type="text/css">
	.st0{fill:#333333;}
	.st1{fill:#0096D7;}
</style>
<g>
	<path class="st0" d="M87.8,59.8c0-11.4-6-13.6-11.1-14c-8.5-0.6-14.8,4.6-14.8,4.6l4.7,4.8c5-4,13.3-3.2,14,2c0,0-7.3,1.7-9,2
		c-5.1,1.1-8.5,1.5-11.1,5.3c-2.3,3.7-1.7,9.2,1.7,12.3c4.7,4.2,14.5,4.2,19.4-1.5c0,0,0.6,3.2,1,4.2H90
		C86.9,72.3,87.7,64.6,87.8,59.8z M80.6,64.9c-0.4,3.3-2.7,7.4-8.8,8.2c-3.8,0.5-7.4-2-5.5-5.4c0.6-1.1,1.9-1.9,3.7-2.2
		c1.1-0.2,2.3-0.3,3.6-0.5c2.8-0.4,5.4-1,7-1.6C80.6,63.4,80.6,64.5,80.6,64.9z"/>
	<path class="st0" d="M40,62.9c0.1-9.8-5.3-16.8-15.1-16.7C15.3,46.1,9.5,53.5,9.6,63c0,5.1,1.4,9.1,4.3,12.2c3.6,4.1,10.4,5.4,16,4
		c4-1,7.1-3.7,9.3-7.1L33,68.7c-4.6,7.7-15.3,5.1-15.7-4H40L40,62.9z M17.8,58.7c1.7-7.6,13.1-8,14.7,0H17.8z"/>
	<path class="st1" d="M83.1,24.8c-12.8-7.2-33.4-6.3-71.6,15c-2.1,1.2-2.1,0.5-1.6-0.1c2.7-3.2,36.7-31.1,66.9-28.5
		c8.8,0.8,24.5,5.9,27.1,22.9c2.6,17-5.1,27-7.4,27.5C99.6,49.8,97.6,33,83.1,24.8z"/>
	<g>
		<path class="st0" d="M46,49.4v30h7.3v-30H46z"/>
		<circle class="st0" cx="49.7" cy="40.1" r="4.7"/>
	</g>
</g>
</svg>
